# xmcd CD database file
#
# Track frame offsets:
#	150
#	15252
#	31287
#	51373
#	70511
#	89347
#	105442
#	120895
#	135253
#	153260
#	171015
#	191497
#	208061
#	223939
#	240924
#	256577
#	273568
#	288531
#
# Disc length: 4058 seconds
#
# Revision: 0
# Processed by: cddbd v1.5.1PL2 Copyright (c) Steve Scherf et al.
# Submitted via: cdripper 1,0,32,406
#
DISCID=e90fd812
DTITLE=Phil Vassar - Greatest Hits Volume 1 Disks 1&2
DYEAR=2005
DGENRE=Country
TTITLE0=Phil Vassar - Bye Bye
TTITLE1=Phil Vassar - In a Real Love
TTITLE2=Phil Vassar - Carlene
TTITLE3=Phil Vassar - I'm Alright
TTITLE4=Phil Vassar - Last Day of My Life
TTITLE5=Phil Vassar - My Next Thirty Years
TTITLE6=Phil Vassar - Little Red Rodeo
TTITLE7=Phil Vassar - American Child
TTITLE8=Phil Vassar - Twenty One
TTITLE9=Phil Vassar - Just Another Day in Paradise
TTITLE10=Phil Vassar - For a Little While
TTITLE11=Phil Vassar - Six-Pack Summer
TTITLE12=Phil Vassar - That's When I Love You
TTITLE13=Phil Vassar - The Woman in My Life
TTITLE14=Phil Vassar - I'll Take That as a Yes (The Hot Tub Song)
TTITLE15=Phil Vassar - Right on the Money
TTITLE16=Phil Vassar - You Make it look Easy
TTITLE17=Phil Vassar - Perfect World
EXTD=YEAR: 2005
EXTT0=
EXTT1=
EXTT2=
EXTT3=
EXTT4=
EXTT5=
EXTT6=
EXTT7=
EXTT8=
EXTT9=
EXTT10=
EXTT11=
EXTT12=
EXTT13=
EXTT14=
EXTT15=
EXTT16=
EXTT17=
PLAYORDER=
